<svg xmlns="http://www.w3.org/2000/svg" viewBox="0 0 1200 140" role="img" aria-hidden="true">
  <defs>
    <linearGradient id="bg" x1="0" y1="0" x2="1" y2="1">
      <stop offset="0" stop-color="#07618c"/>
      <stop offset="1" stop-color="#1b4165"/>
    </linearGradient>
  </defs>
  <rect width="1200" height="140" rx="10" fill="url(#bg)"/>
  <!-- an open book, a play button, and course cards: courses plus videos -->
  <g fill="none" stroke="#ffffff" stroke-width="2" opacity="0.7">
    <path d="M 200 50 C 230 40 260 40 285 50 L 285 100 C 260 90 230 90 200 100 Z"/>
    <path d="M 370 50 C 340 40 310 40 285 50 L 285 100 C 310 90 340 90 370 100 Z"/>
  </g>
  <g stroke="#ffffff" stroke-width="2" stroke-linecap="round" opacity="0.4">
    <line x1="218" y1="60" x2="266" y2="56"/>
    <line x1="218" y1="74" x2="266" y2="70"/>
    <line x1="218" y1="88" x2="266" y2="84"/>
    <line x1="304" y1="56" x2="352" y2="60"/>
    <line x1="304" y1="70" x2="352" y2="74"/>
    <line x1="304" y1="84" x2="352" y2="88"/>
  </g>
  <g opacity="0.7">
    <circle cx="520" cy="70" r="28" fill="none" stroke="#ffffff" stroke-width="2"/>
    <path d="M 511 56 L 511 84 L 535 70 Z" fill="#ffffff" opacity="0.85"/>
  </g>
  <g fill="none" stroke="#ffffff" stroke-width="1.5" opacity="0.35">
    <rect x="640" y="34" width="170" height="72" rx="7"/>
    <rect x="840" y="34" width="170" height="72" rx="7"/>
  </g>
  <g stroke="#ffffff" stroke-width="3" stroke-linecap="round" opacity="0.5">
    <line x1="658" y1="56" x2="758" y2="56"/>
    <line x1="858" y1="56" x2="948" y2="56"/>
  </g>
  <g stroke="#ffffff" stroke-width="2" stroke-linecap="round" opacity="0.3">
    <line x1="658" y1="76" x2="792" y2="76"/>
    <line x1="658" y1="90" x2="738" y2="90"/>
    <line x1="858" y1="76" x2="992" y2="76"/>
    <line x1="858" y1="90" x2="938" y2="90"/>
  </g>
  <g fill="#ffffff" opacity="0.25">
    <circle cx="1080" cy="46" r="4"/><circle cx="1110" cy="70" r="4"/><circle cx="1080" cy="94" r="4"/>
  </g>
</svg>
