<svg xmlns="http://www.w3.org/2000/svg" viewBox="0 0 1200 140" role="img" aria-hidden="true">
  <defs>
    <linearGradient id="bg" x1="0" y1="0" x2="1" y2="1">
      <stop offset="0" stop-color="#07618c"/>
      <stop offset="1" stop-color="#1b4165"/>
    </linearGradient>
  </defs>
  <rect width="1200" height="140" rx="10" fill="url(#bg)"/>
  <!-- three ascending stages, module dots on each step -->
  <g fill="none" stroke="#ffffff" stroke-width="2" opacity="0.55">
    <rect x="180" y="88" width="260" height="30" rx="7"/>
    <rect x="470" y="62" width="260" height="30" rx="7"/>
    <rect x="760" y="36" width="260" height="30" rx="7"/>
  </g>
  <g fill="#ffffff" opacity="0.8">
    <circle cx="230" cy="103" r="6"/><circle cx="310" cy="103" r="6"/><circle cx="390" cy="103" r="6"/>
    <circle cx="520" cy="77" r="6"/><circle cx="600" cy="77" r="6"/><circle cx="680" cy="77" r="6"/>
    <circle cx="890" cy="51" r="6"/>
  </g>
  <g stroke="#ffffff" stroke-width="2" stroke-linecap="round" opacity="0.45">
    <path d="M 446 96 L 464 84" fill="none"/>
    <path d="M 736 70 L 754 58" fill="none"/>
    <path d="M 458 84 L 464 84 L 463 90" fill="none"/>
    <path d="M 748 58 L 754 58 L 753 64" fill="none"/>
  </g>
  <g stroke="#ffffff" stroke-width="3" stroke-linecap="round" opacity="0.3">
    <line x1="196" y1="128" x2="424" y2="128"/>
    <line x1="486" y1="102" x2="714" y2="102"/>
    <line x1="776" y1="76" x2="1004" y2="76"/>
  </g>
  <g fill="#ffffff" opacity="0.25">
    <circle cx="1090" cy="46" r="4"/><circle cx="1120" cy="70" r="4"/><circle cx="1090" cy="94" r="4"/>
  </g>
</svg>
