<svg xmlns="http://www.w3.org/2000/svg" viewBox="0 0 1200 140" role="img" aria-hidden="true">
  <defs>
    <linearGradient id="bg" x1="0" y1="0" x2="1" y2="1">
      <stop offset="0" stop-color="#07618c"/>
      <stop offset="1" stop-color="#1b4165"/>
    </linearGradient>
  </defs>
  <rect width="1200" height="140" rx="10" fill="url(#bg)"/>
  <!-- document with seal, flanked by column strokes -->
  <g fill="none" stroke="#ffffff" stroke-width="1.5" opacity="0.35">
    <rect x="500" y="24" width="200" height="92" rx="8"/>
  </g>
  <g stroke="#ffffff" stroke-width="3" stroke-linecap="round" opacity="0.55">
    <line x1="520" y1="44" x2="650" y2="44"/>
    <line x1="520" y1="60" x2="680" y2="60"/>
    <line x1="520" y1="76" x2="640" y2="76"/>
  </g>
  <g fill="none" stroke="#ffffff" opacity="0.8">
    <circle cx="655" cy="96" r="12" stroke-width="2.5"/>
    <path d="M 649 96 L 654 101 L 662 91" stroke-width="2.5" stroke-linecap="round" stroke-linejoin="round"/>
  </g>
  <g stroke="#ffffff" stroke-width="2" stroke-linecap="round" opacity="0.3">
    <line x1="160" y1="36" x2="160" y2="104"/><line x1="200" y1="36" x2="200" y2="104"/>
    <line x1="240" y1="36" x2="240" y2="104"/><line x1="140" y1="36" x2="260" y2="36"/>
    <line x1="140" y1="104" x2="260" y2="104"/>
    <line x1="960" y1="36" x2="960" y2="104"/><line x1="1000" y1="36" x2="1000" y2="104"/>
    <line x1="1040" y1="36" x2="1040" y2="104"/><line x1="940" y1="36" x2="1060" y2="36"/>
    <line x1="940" y1="104" x2="1060" y2="104"/>
  </g>
  <g stroke="#ffffff" stroke-width="1.5" opacity="0.25">
    <line x1="300" y1="70" x2="460" y2="70"/>
    <line x1="740" y1="70" x2="900" y2="70"/>
  </g>
</svg>
