<svg xmlns="http://www.w3.org/2000/svg" viewBox="0 0 1200 140" role="img" aria-hidden="true">
  <defs>
    <linearGradient id="bg" x1="0" y1="0" x2="1" y2="1">
      <stop offset="0" stop-color="#07618c"/>
      <stop offset="1" stop-color="#1b4165"/>
    </linearGradient>
  </defs>
  <rect width="1200" height="140" rx="10" fill="url(#bg)"/>
  <!-- prompt chevrons and reply lines -->
  <g fill="none" stroke="#ffffff" stroke-width="4" stroke-linecap="round" stroke-linejoin="round" opacity="0.8">
    <path d="M 140 50 L 165 70 L 140 90"/>
    <path d="M 620 50 L 645 70 L 620 90"/>
  </g>
  <g stroke="#ffffff" stroke-width="4" stroke-linecap="round" opacity="0.55">
    <line x1="190" y1="56" x2="400" y2="56"/>
    <line x1="190" y1="72" x2="470" y2="72"/>
    <line x1="190" y1="88" x2="360" y2="88"/>
    <line x1="670" y1="56" x2="930" y2="56"/>
    <line x1="670" y1="72" x2="860" y2="72"/>
    <line x1="670" y1="88" x2="980" y2="88"/>
  </g>
  <g fill="none" stroke="#ffffff" stroke-width="1.5" opacity="0.3">
    <rect x="120" y="32" width="400" height="76" rx="10"/>
    <rect x="600" y="32" width="430" height="76" rx="10"/>
  </g>
  <g fill="#ffffff" opacity="0.35">
    <circle cx="1090" cy="56" r="4"/><circle cx="1110" cy="72" r="4"/><circle cx="1090" cy="88" r="4"/>
  </g>
</svg>
